<svg width="187" height="39" viewBox="0 0 187 39" fill="none" xmlns="http://www.w3.org/2000/svg">
<g filter="url(#filter0_d_1_634)">
<mask id="path-1-outside-1_1_634" maskUnits="userSpaceOnUse" x="2" y="-2" width="183" height="35" fill="black">
<rect fill="white" x="2" y="-2" width="183" height="35"/>
<path d="M4.35795 30V25.5682L14.7131 15.9801C15.5938 15.1278 16.3324 14.3608 16.929 13.679C17.535 12.9972 17.9943 12.3295 18.3068 11.6761C18.6193 11.0133 18.7756 10.2983 18.7756 9.53125C18.7756 8.67898 18.5814 7.94508 18.1932 7.32955C17.8049 6.70455 17.2746 6.22633 16.6023 5.89489C15.9299 5.55398 15.1676 5.38352 14.3153 5.38352C13.4252 5.38352 12.6487 5.56345 11.9858 5.9233C11.3229 6.28314 10.8116 6.79924 10.4517 7.47159C10.0919 8.14394 9.91193 8.94413 9.91193 9.87216H4.07386C4.07386 7.96875 4.50473 6.31629 5.36648 4.91477C6.22822 3.51326 7.43561 2.42898 8.98864 1.66193C10.5417 0.894885 12.3314 0.511363 14.358 0.511363C16.4413 0.511363 18.2547 0.880681 19.7983 1.61932C21.3513 2.34848 22.5587 3.36174 23.4205 4.65909C24.2822 5.95644 24.7131 7.44318 24.7131 9.11932C24.7131 10.2178 24.4953 11.3021 24.0597 12.3722C23.6335 13.4422 22.8712 14.6307 21.7727 15.9375C20.6742 17.2348 19.1259 18.7926 17.1278 20.6108L12.8807 24.7727V24.9716H25.0966V30H4.35795ZM40.0788 0.511363C41.575 0.511363 43.0144 0.762309 44.397 1.2642C45.7891 1.7661 47.0296 2.56629 48.1186 3.66477C49.2171 4.76326 50.0836 6.22159 50.718 8.03977C51.362 9.84848 51.6887 12.0691 51.6982 14.7017C51.6982 17.1733 51.4188 19.3797 50.8601 21.321C50.3108 23.2528 49.5201 24.8958 48.4879 26.25C47.4557 27.6042 46.2105 28.6364 44.7521 29.3466C43.2938 30.0473 41.665 30.3977 39.8658 30.3977C37.9245 30.3977 36.2105 30.0237 34.7237 29.2756C33.237 28.518 32.0391 27.4905 31.13 26.1932C30.2304 24.8864 29.6858 23.4186 29.4964 21.7898H35.5618C35.7985 22.8504 36.2957 23.6742 37.0533 24.2614C37.8108 24.839 38.7483 25.1278 39.8658 25.1278C41.7597 25.1278 43.1991 24.304 44.1839 22.6562C45.1688 20.9991 45.666 18.7311 45.6754 15.8523H45.4766C45.041 16.7045 44.4538 17.4384 43.7152 18.054C42.9766 18.66 42.129 19.1288 41.1726 19.4602C40.2256 19.7917 39.2171 19.9574 38.147 19.9574C36.433 19.9574 34.9036 19.5549 33.5589 18.75C32.2143 17.9451 31.1536 16.8371 30.3771 15.4261C29.6006 14.0152 29.2124 12.4053 29.2124 10.5966C29.2029 8.64583 29.6527 6.90814 30.5618 5.38352C31.4709 3.8589 32.7398 2.66572 34.3686 1.80398C36.0069 0.932764 37.9103 0.501893 40.0788 0.511363ZM40.1214 5.34091C39.165 5.34091 38.3127 5.56818 37.5646 6.02273C36.826 6.47727 36.2389 7.08807 35.8033 7.85511C35.3771 8.62216 35.1688 9.47917 35.1783 10.4261C35.1783 11.3826 35.3866 12.2443 35.8033 13.0114C36.2294 13.7689 36.8071 14.375 37.5362 14.8295C38.2749 15.2746 39.1177 15.4972 40.0646 15.4972C40.7749 15.4972 41.433 15.3646 42.0391 15.0994C42.6451 14.8343 43.1707 14.4697 43.6158 14.0057C44.0703 13.5322 44.4254 12.9877 44.6811 12.3722C44.9368 11.7566 45.0646 11.1032 45.0646 10.4119C45.0552 9.49337 44.8374 8.65057 44.4112 7.88352C43.9851 7.11648 43.398 6.50095 42.6499 6.03693C41.9018 5.57292 41.0589 5.34091 40.1214 5.34091ZM89.7202 0.90909V30H84.4077L71.7514 11.6903H71.5384V30H65.3878V0.90909H70.7855L83.3423 19.2045H83.598V0.90909H89.7202ZM94.8018 30V0.90909H114.404V5.98011H100.952V12.9119H113.396V17.983H100.952V24.929H114.461V30H94.8018ZM125.842 30L117.518 0.90909H124.237L129.053 21.1222H129.294L134.607 0.90909H140.359L145.658 21.1648H145.913L150.729 0.90909H157.447L149.124 30H143.129L137.589 10.9801H137.362L131.837 30H125.842ZM176.247 9.27557C176.134 8.12973 175.646 7.23958 174.784 6.60511C173.922 5.97064 172.753 5.65341 171.276 5.65341C170.272 5.65341 169.424 5.79545 168.733 6.07955C168.042 6.35417 167.511 6.73769 167.142 7.23011C166.782 7.72254 166.602 8.28125 166.602 8.90625C166.583 9.42708 166.692 9.88163 166.929 10.2699C167.175 10.6581 167.511 10.9943 167.938 11.2784C168.364 11.553 168.856 11.7945 169.415 12.0028C169.973 12.2017 170.57 12.3722 171.205 12.5142L173.818 13.1392C175.087 13.4233 176.252 13.8021 177.312 14.2756C178.373 14.7491 179.292 15.3314 180.068 16.0227C180.845 16.714 181.446 17.5284 181.872 18.4659C182.308 19.4034 182.53 20.4782 182.54 21.6903C182.53 23.4706 182.076 25.0142 181.176 26.321C180.286 27.6184 178.998 28.6269 177.312 29.3466C175.636 30.0568 173.615 30.4119 171.247 30.4119C168.899 30.4119 166.853 30.0521 165.111 29.3324C163.378 28.6127 162.024 27.5473 161.048 26.1364C160.082 24.7159 159.576 22.9593 159.528 20.8665H165.48C165.546 21.8419 165.826 22.6562 166.318 23.3097C166.82 23.9536 167.488 24.4413 168.321 24.7727C169.164 25.0947 170.116 25.2557 171.176 25.2557C172.218 25.2557 173.122 25.1042 173.889 24.8011C174.666 24.4981 175.267 24.0767 175.693 23.5369C176.119 22.9972 176.332 22.3769 176.332 21.6761C176.332 21.0227 176.138 20.4735 175.75 20.0284C175.371 19.5833 174.813 19.2045 174.074 18.892C173.345 18.5795 172.45 18.2955 171.389 18.0398L168.222 17.2443C165.769 16.6477 163.832 15.715 162.412 14.446C160.991 13.1771 160.286 11.4678 160.295 9.31818C160.286 7.55682 160.755 6.01799 161.702 4.7017C162.658 3.38542 163.97 2.35795 165.636 1.61932C167.303 0.880681 169.197 0.511363 171.318 0.511363C173.477 0.511363 175.362 0.880681 176.972 1.61932C178.591 2.35795 179.85 3.38542 180.75 4.7017C181.65 6.01799 182.114 7.54261 182.142 9.27557H176.247Z"/>
</mask>
<path d="M4.35795 30V25.5682L14.7131 15.9801C15.5938 15.1278 16.3324 14.3608 16.929 13.679C17.535 12.9972 17.9943 12.3295 18.3068 11.6761C18.6193 11.0133 18.7756 10.2983 18.7756 9.53125C18.7756 8.67898 18.5814 7.94508 18.1932 7.32955C17.8049 6.70455 17.2746 6.22633 16.6023 5.89489C15.9299 5.55398 15.1676 5.38352 14.3153 5.38352C13.4252 5.38352 12.6487 5.56345 11.9858 5.9233C11.3229 6.28314 10.8116 6.79924 10.4517 7.47159C10.0919 8.14394 9.91193 8.94413 9.91193 9.87216H4.07386C4.07386 7.96875 4.50473 6.31629 5.36648 4.91477C6.22822 3.51326 7.43561 2.42898 8.98864 1.66193C10.5417 0.894885 12.3314 0.511363 14.358 0.511363C16.4413 0.511363 18.2547 0.880681 19.7983 1.61932C21.3513 2.34848 22.5587 3.36174 23.4205 4.65909C24.2822 5.95644 24.7131 7.44318 24.7131 9.11932C24.7131 10.2178 24.4953 11.3021 24.0597 12.3722C23.6335 13.4422 22.8712 14.6307 21.7727 15.9375C20.6742 17.2348 19.1259 18.7926 17.1278 20.6108L12.8807 24.7727V24.9716H25.0966V30H4.35795ZM40.0788 0.511363C41.575 0.511363 43.0144 0.762309 44.397 1.2642C45.7891 1.7661 47.0296 2.56629 48.1186 3.66477C49.2171 4.76326 50.0836 6.22159 50.718 8.03977C51.362 9.84848 51.6887 12.0691 51.6982 14.7017C51.6982 17.1733 51.4188 19.3797 50.8601 21.321C50.3108 23.2528 49.5201 24.8958 48.4879 26.25C47.4557 27.6042 46.2105 28.6364 44.7521 29.3466C43.2938 30.0473 41.665 30.3977 39.8658 30.3977C37.9245 30.3977 36.2105 30.0237 34.7237 29.2756C33.237 28.518 32.0391 27.4905 31.13 26.1932C30.2304 24.8864 29.6858 23.4186 29.4964 21.7898H35.5618C35.7985 22.8504 36.2957 23.6742 37.0533 24.2614C37.8108 24.839 38.7483 25.1278 39.8658 25.1278C41.7597 25.1278 43.1991 24.304 44.1839 22.6562C45.1688 20.9991 45.666 18.7311 45.6754 15.8523H45.4766C45.041 16.7045 44.4538 17.4384 43.7152 18.054C42.9766 18.66 42.129 19.1288 41.1726 19.4602C40.2256 19.7917 39.2171 19.9574 38.147 19.9574C36.433 19.9574 34.9036 19.5549 33.5589 18.75C32.2143 17.9451 31.1536 16.8371 30.3771 15.4261C29.6006 14.0152 29.2124 12.4053 29.2124 10.5966C29.2029 8.64583 29.6527 6.90814 30.5618 5.38352C31.4709 3.8589 32.7398 2.66572 34.3686 1.80398C36.0069 0.932764 37.9103 0.501893 40.0788 0.511363ZM40.1214 5.34091C39.165 5.34091 38.3127 5.56818 37.5646 6.02273C36.826 6.47727 36.2389 7.08807 35.8033 7.85511C35.3771 8.62216 35.1688 9.47917 35.1783 10.4261C35.1783 11.3826 35.3866 12.2443 35.8033 13.0114C36.2294 13.7689 36.8071 14.375 37.5362 14.8295C38.2749 15.2746 39.1177 15.4972 40.0646 15.4972C40.7749 15.4972 41.433 15.3646 42.0391 15.0994C42.6451 14.8343 43.1707 14.4697 43.6158 14.0057C44.0703 13.5322 44.4254 12.9877 44.6811 12.3722C44.9368 11.7566 45.0646 11.1032 45.0646 10.4119C45.0552 9.49337 44.8374 8.65057 44.4112 7.88352C43.9851 7.11648 43.398 6.50095 42.6499 6.03693C41.9018 5.57292 41.0589 5.34091 40.1214 5.34091ZM89.7202 0.90909V30H84.4077L71.7514 11.6903H71.5384V30H65.3878V0.90909H70.7855L83.3423 19.2045H83.598V0.90909H89.7202ZM94.8018 30V0.90909H114.404V5.98011H100.952V12.9119H113.396V17.983H100.952V24.929H114.461V30H94.8018ZM125.842 30L117.518 0.90909H124.237L129.053 21.1222H129.294L134.607 0.90909H140.359L145.658 21.1648H145.913L150.729 0.90909H157.447L149.124 30H143.129L137.589 10.9801H137.362L131.837 30H125.842ZM176.247 9.27557C176.134 8.12973 175.646 7.23958 174.784 6.60511C173.922 5.97064 172.753 5.65341 171.276 5.65341C170.272 5.65341 169.424 5.79545 168.733 6.07955C168.042 6.35417 167.511 6.73769 167.142 7.23011C166.782 7.72254 166.602 8.28125 166.602 8.90625C166.583 9.42708 166.692 9.88163 166.929 10.2699C167.175 10.6581 167.511 10.9943 167.938 11.2784C168.364 11.553 168.856 11.7945 169.415 12.0028C169.973 12.2017 170.57 12.3722 171.205 12.5142L173.818 13.1392C175.087 13.4233 176.252 13.8021 177.312 14.2756C178.373 14.7491 179.292 15.3314 180.068 16.0227C180.845 16.714 181.446 17.5284 181.872 18.4659C182.308 19.4034 182.53 20.4782 182.54 21.6903C182.53 23.4706 182.076 25.0142 181.176 26.321C180.286 27.6184 178.998 28.6269 177.312 29.3466C175.636 30.0568 173.615 30.4119 171.247 30.4119C168.899 30.4119 166.853 30.0521 165.111 29.3324C163.378 28.6127 162.024 27.5473 161.048 26.1364C160.082 24.7159 159.576 22.9593 159.528 20.8665H165.48C165.546 21.8419 165.826 22.6562 166.318 23.3097C166.82 23.9536 167.488 24.4413 168.321 24.7727C169.164 25.0947 170.116 25.2557 171.176 25.2557C172.218 25.2557 173.122 25.1042 173.889 24.8011C174.666 24.4981 175.267 24.0767 175.693 23.5369C176.119 22.9972 176.332 22.3769 176.332 21.6761C176.332 21.0227 176.138 20.4735 175.75 20.0284C175.371 19.5833 174.813 19.2045 174.074 18.892C173.345 18.5795 172.45 18.2955 171.389 18.0398L168.222 17.2443C165.769 16.6477 163.832 15.715 162.412 14.446C160.991 13.1771 160.286 11.4678 160.295 9.31818C160.286 7.55682 160.755 6.01799 161.702 4.7017C162.658 3.38542 163.97 2.35795 165.636 1.61932C167.303 0.880681 169.197 0.511363 171.318 0.511363C173.477 0.511363 175.362 0.880681 176.972 1.61932C178.591 2.35795 179.85 3.38542 180.75 4.7017C181.65 6.01799 182.114 7.54261 182.142 9.27557H176.247Z" fill="#A71616"/>
<path d="M4.35795 30H2.35795V32H4.35795V30ZM4.35795 25.5682L2.99914 24.1007L2.35795 24.6943V25.5682H4.35795ZM14.7131 15.9801L16.0719 17.4476L16.0881 17.4327L16.1039 17.4173L14.7131 15.9801ZM16.929 13.679L15.4342 12.3502L15.429 12.3561L15.4238 12.362L16.929 13.679ZM18.3068 11.6761L20.1111 12.5391L20.1159 12.529L18.3068 11.6761ZM18.1932 7.32955L16.4943 8.38494L16.5016 8.39655L18.1932 7.32955ZM16.6023 5.89489L15.6978 7.67869L15.7079 7.68378L15.718 7.68876L16.6023 5.89489ZM10.4517 7.47159L12.215 8.41534L12.215 8.41534L10.4517 7.47159ZM9.91193 9.87216V11.8722H11.9119V9.87216H9.91193ZM4.07386 9.87216H2.07386V11.8722H4.07386V9.87216ZM5.36648 4.91477L7.07019 5.96233L7.07019 5.96232L5.36648 4.91477ZM8.98864 1.66193L8.10297 -0.131277L8.10297 -0.131276L8.98864 1.66193ZM19.7983 1.61932L18.935 3.4234L18.9416 3.42658L18.9483 3.4297L19.7983 1.61932ZM23.4205 4.65909L21.7545 5.76568L21.7545 5.76568L23.4205 4.65909ZM24.0597 12.3722L22.2073 11.6181L22.2044 11.6251L22.2016 11.6322L24.0597 12.3722ZM21.7727 15.9375L23.2991 17.2299L23.3037 17.2244L21.7727 15.9375ZM17.1278 20.6108L15.7818 19.1315L15.7544 19.1564L15.728 19.1823L17.1278 20.6108ZM12.8807 24.7727L11.4809 23.3443L10.8807 23.9324V24.7727H12.8807ZM12.8807 24.9716H10.8807V26.9716H12.8807V24.9716ZM25.0966 24.9716H27.0966V22.9716H25.0966V24.9716ZM25.0966 30V32H27.0966V30H25.0966ZM6.35795 30V25.5682H2.35795V30H6.35795ZM5.71677 27.0357L16.0719 17.4476L13.3543 14.5126L2.99914 24.1007L5.71677 27.0357ZM16.1039 17.4173C17.0115 16.539 17.791 15.731 18.4341 14.996L15.4238 12.362C14.8738 12.9906 14.176 13.7167 13.3222 14.5429L16.1039 17.4173ZM18.4238 15.0077C19.1236 14.2204 19.7 13.3986 20.1111 12.539L16.5026 10.8132C16.2886 11.2605 15.9464 11.7739 15.4342 12.3502L18.4238 15.0077ZM20.1159 12.529C20.56 11.5869 20.7756 10.5791 20.7756 9.53125H16.7756C16.7756 10.0175 16.6786 10.4396 16.4978 10.8233L20.1159 12.529ZM20.7756 9.53125C20.7756 8.36703 20.5069 7.24885 19.8848 6.26254L16.5016 8.39655C16.656 8.6413 16.7756 8.99092 16.7756 9.53125H20.7756ZM19.8921 6.27418C19.3027 5.3255 18.4875 4.5944 17.4866 4.10101L15.718 7.68876C16.0618 7.85825 16.3071 8.08359 16.4943 8.38491L19.8921 6.27418ZM17.5067 4.11108C16.5193 3.61044 15.4405 3.38352 14.3153 3.38352V7.38352C14.8947 7.38352 15.3405 7.49751 15.6978 7.67869L17.5067 4.11108ZM14.3153 3.38352C13.152 3.38352 12.036 3.62033 11.0316 4.16559L12.94 7.681C13.2613 7.50656 13.6984 7.38352 14.3153 7.38352V3.38352ZM11.0316 4.16559C10.0213 4.71406 9.23046 5.515 8.68838 6.52784L12.215 8.41534C12.3926 8.08349 12.6246 7.85223 12.94 7.681L11.0316 4.16559ZM8.68838 6.52784C8.14288 7.54705 7.91193 8.6856 7.91193 9.87216H11.9119C11.9119 9.20265 12.0408 8.74083 12.215 8.41534L8.68838 6.52784ZM9.91193 7.87216H4.07386V11.8722H9.91193V7.87216ZM6.07386 9.87216C6.07386 8.27953 6.43095 7.00197 7.07019 5.96233L3.66277 3.86722C2.57852 5.6306 2.07386 7.65797 2.07386 9.87216H6.07386ZM7.07019 5.96232C7.7242 4.89866 8.64001 4.06476 9.87431 3.45514L8.10297 -0.131276C6.2312 0.793193 4.73224 2.12786 3.66277 3.86722L7.07019 5.96232ZM9.87431 3.45514C11.1088 2.84543 12.5866 2.51136 14.358 2.51136V-1.48864C12.0763 -1.48864 9.97456 -1.05566 8.10297 -0.131277L9.87431 3.45514ZM14.358 2.51136C16.2063 2.51136 17.7131 2.83871 18.935 3.4234L20.6616 -0.184763C18.7963 -1.07735 16.6762 -1.48864 14.358 -1.48864V2.51136ZM18.9483 3.4297C20.2048 4.01964 21.1154 4.8036 21.7545 5.76568L25.0864 3.5525C24.002 1.91989 22.4979 0.67733 20.6483 -0.19107L18.9483 3.4297ZM21.7545 5.76568C22.3816 6.70986 22.7131 7.80546 22.7131 9.11932H26.7131C26.7131 7.0809 26.1828 5.20302 25.0864 3.5525L21.7545 5.76568ZM22.7131 9.11932C22.7131 9.94602 22.5505 10.7749 22.2073 11.6181L25.9121 13.1262C26.44 11.8293 26.7131 10.4896 26.7131 9.11932H22.7131ZM22.2016 11.6322C21.8828 12.4327 21.2624 13.4364 20.2418 14.6506L23.3037 17.2244C24.48 15.825 25.3842 14.4518 25.9177 13.1121L22.2016 11.6322ZM20.2464 14.6451C19.2265 15.8496 17.7484 17.342 15.7818 19.1315L18.4739 22.09C20.5035 20.2432 22.1219 18.6201 23.2991 17.2299L20.2464 14.6451ZM15.728 19.1823L11.4809 23.3443L14.2805 26.2012L18.5276 22.0393L15.728 19.1823ZM10.8807 24.7727V24.9716H14.8807V24.7727H10.8807ZM12.8807 26.9716H25.0966V22.9716H12.8807V26.9716ZM23.0966 24.9716V30H27.0966V24.9716H23.0966ZM25.0966 28H4.35795V32H25.0966V28ZM40.0788 0.511363L40.0701 2.51136H40.0788V0.511363ZM44.397 1.2642L43.7146 3.14417L43.7187 3.14565L44.397 1.2642ZM48.1186 3.66477L46.6983 5.07286L46.7044 5.07899L48.1186 3.66477ZM50.718 8.03977L48.8297 8.69873L48.8339 8.71057L50.718 8.03977ZM51.6982 14.7017L53.6982 14.7017L53.6981 14.6945L51.6982 14.7017ZM50.8601 21.321L48.9381 20.7679L48.9363 20.7741L50.8601 21.321ZM48.4879 26.25L50.0785 27.4624L50.0785 27.4624L48.4879 26.25ZM44.7521 29.3466L45.6184 31.1493L45.6278 31.1447L44.7521 29.3466ZM34.7237 29.2756L33.8157 31.0576L33.8247 31.0621L34.7237 29.2756ZM31.13 26.1932L29.4826 27.3273L29.4873 27.3341L29.4921 27.3409L31.13 26.1932ZM29.4964 21.7898V19.7898H27.2504L27.5098 22.0208L29.4964 21.7898ZM35.5618 21.7898L37.5138 21.3541L37.1646 19.7898H35.5618V21.7898ZM37.0533 24.2614L35.8281 25.8422L35.8343 25.847L35.8406 25.8518L37.0533 24.2614ZM44.1839 22.6562L45.9007 23.6823L45.9033 23.678L44.1839 22.6562ZM45.6754 15.8523L47.6754 15.8589L47.682 13.8523H45.6754V15.8523ZM45.4766 15.8523V13.8523H44.2527L43.6957 14.9421L45.4766 15.8523ZM43.7152 18.054L44.9838 19.6001L44.9897 19.5953L44.9956 19.5904L43.7152 18.054ZM41.1726 19.4602L40.5177 17.5705L40.5119 17.5725L41.1726 19.4602ZM33.5589 18.75L32.5317 20.4661L32.5317 20.4661L33.5589 18.75ZM30.3771 15.4261L28.6249 16.3904L28.6249 16.3904L30.3771 15.4261ZM29.2124 10.5966L31.2124 10.5966L31.2123 10.5869L29.2124 10.5966ZM30.5618 5.38352L32.2796 6.4078L32.2796 6.4078L30.5618 5.38352ZM34.3686 1.80398L35.3039 3.57181L35.3077 3.56981L34.3686 1.80398ZM37.5646 6.02273L36.5261 4.31347L36.5164 4.31941L37.5646 6.02273ZM35.8033 7.85511L34.0641 6.86746L34.0595 6.87562L34.055 6.88383L35.8033 7.85511ZM35.1783 10.4261H37.1783V10.4161L37.1782 10.4061L35.1783 10.4261ZM35.8033 13.0114L34.0458 13.966L34.0529 13.979L34.0601 13.9919L35.8033 13.0114ZM37.5362 14.8295L36.4782 16.5268L36.491 16.5348L36.504 16.5426L37.5362 14.8295ZM42.0391 15.0994L41.2374 13.2671L41.2374 13.2671L42.0391 15.0994ZM43.6158 14.0057L42.173 12.6206L42.1724 12.6212L43.6158 14.0057ZM44.6811 12.3722L46.5281 13.1394L46.5281 13.1394L44.6811 12.3722ZM45.0646 10.4119H47.0646V10.4016L47.0645 10.3913L45.0646 10.4119ZM44.4112 7.88352L46.1595 6.91224L46.1595 6.91224L44.4112 7.88352ZM42.6499 6.03693L43.7041 4.33732L43.704 4.33732L42.6499 6.03693ZM40.0788 2.51136C41.3464 2.51136 42.5546 2.72307 43.7146 3.14417L45.0795 -0.61576C43.4743 -1.19845 41.8037 -1.48864 40.0788 -1.48864V2.51136ZM43.7187 3.14565C44.8186 3.54223 45.8087 4.17548 46.6983 5.07285L49.5389 2.25669C48.2505 0.957091 46.7595 -0.01003 45.0754 -0.617245L43.7187 3.14565ZM46.7044 5.07899C47.5452 5.91983 48.2712 7.09822 48.8297 8.69872L52.6064 7.38082C51.8959 5.34496 50.889 3.60669 49.5328 2.25056L46.7044 5.07899ZM48.8339 8.71057C49.3796 10.2434 49.6892 12.2245 49.6982 14.7089L53.6981 14.6945C53.6881 11.9138 53.3443 9.45355 52.6022 7.36897L48.8339 8.71057ZM49.6982 14.7017C49.6982 17.0263 49.435 19.0412 48.9381 20.7679L52.7821 21.8742C53.4026 19.7182 53.6982 17.3203 53.6982 14.7017H49.6982ZM48.9363 20.7741C48.4435 22.5076 47.7532 23.9147 46.8973 25.0376L50.0785 27.4624C51.287 25.877 52.1782 23.9981 52.7838 21.868L48.9363 20.7741ZM46.8973 25.0376C46.0448 26.1561 45.04 26.9818 43.8764 27.5485L45.6278 31.1447C47.3809 30.2909 48.8667 29.0522 50.0785 27.4624L46.8973 25.0376ZM43.8859 27.5439C42.7269 28.1009 41.3991 28.3977 39.8658 28.3977V32.3977C41.931 32.3977 43.8607 31.9938 45.6184 31.1493L43.8859 27.5439ZM39.8658 28.3977C38.1848 28.3977 36.7876 28.0752 35.6227 27.489L33.8247 31.0621C35.6333 31.9722 37.6642 32.3977 39.8658 32.3977V28.3977ZM35.6317 27.4936C34.4205 26.8764 33.4791 26.0605 32.7679 25.0455L29.4921 27.3409C30.599 28.9206 32.0535 30.1596 33.8157 31.0576L35.6317 27.4936ZM32.7774 25.0591C32.0691 24.0303 31.6361 22.8746 31.4831 21.5588L27.5098 22.0208C27.7356 23.9625 28.3916 25.7424 29.4826 27.3273L32.7774 25.0591ZM29.4964 23.7898H35.5618V19.7898H29.4964V23.7898ZM33.6098 22.2255C33.9337 23.6763 34.6532 24.9317 35.8281 25.8422L38.2784 22.6805C37.9381 22.4168 37.6634 22.0244 37.5138 21.3541L33.6098 22.2255ZM35.8406 25.8518C37.0044 26.7391 38.3888 27.1278 39.8658 27.1278V23.1278C39.1079 23.1278 38.6173 22.9389 38.266 22.671L35.8406 25.8518ZM39.8658 27.1278C42.4751 27.1278 44.5608 25.924 45.9007 23.6823L42.4672 21.6302C41.8374 22.6839 41.0443 23.1278 39.8658 23.1278V27.1278ZM45.9033 23.678C47.1393 21.5981 47.6653 18.9312 47.6754 15.8589L43.6754 15.8457C43.6666 18.5309 43.1983 20.4 42.4646 21.6345L45.9033 23.678ZM45.6754 13.8523H45.4766V17.8523H45.6754V13.8523ZM43.6957 14.9421C43.3835 15.5528 42.967 16.074 42.4348 16.5175L44.9956 19.5904C45.9406 18.8029 46.6984 17.8563 47.2574 16.7625L43.6957 14.9421ZM42.4466 16.5078C41.9013 16.9553 41.2643 17.3118 40.5177 17.5705L41.8275 21.35C42.9938 20.9458 44.0519 20.3648 44.9838 19.6001L42.4466 16.5078ZM40.5119 17.5725C39.791 17.8248 39.0072 17.9574 38.147 17.9574V21.9574C39.427 21.9574 40.6602 21.7585 41.8333 21.3479L40.5119 17.5725ZM38.147 17.9574C36.7598 17.9574 35.5917 17.6359 34.5862 17.0339L32.5317 20.4661C34.2156 21.474 36.1062 21.9574 38.147 21.9574V17.9574ZM34.5862 17.0339C33.5541 16.4162 32.74 15.5714 32.1293 14.4618L28.6249 16.3904C29.5673 18.1028 30.8744 19.474 32.5317 20.4661L34.5862 17.0339ZM32.1293 14.4618C31.5346 13.3811 31.2124 12.1103 31.2124 10.5966H27.2124C27.2124 12.7003 27.6667 14.6492 28.6249 16.3904L32.1293 14.4618ZM31.2123 10.5869C31.2045 8.96289 31.575 7.58941 32.2796 6.4078L28.844 4.35924C27.7304 6.22688 27.2013 8.32878 27.2124 10.6063L31.2123 10.5869ZM32.2796 6.4078C32.9936 5.21041 33.9862 4.26895 35.3039 3.5718L33.4333 0.0361514C31.4934 1.06249 29.9482 2.50739 28.844 4.35924L32.2796 6.4078ZM35.3077 3.56981C36.6085 2.87804 38.176 2.50307 40.0701 2.51134L40.0876 -1.48862C37.6445 -1.49929 35.4052 -1.01251 33.4296 0.0381432L35.3077 3.56981ZM40.1214 3.34091C38.8338 3.34091 37.6159 3.65134 36.5261 4.3135L38.6032 7.73196C39.0096 7.48502 39.4962 7.34091 40.1214 7.34091V3.34091ZM36.5164 4.31941C35.4858 4.95364 34.6631 5.81271 34.0641 6.86746L37.5424 8.84276C37.8146 8.36343 38.1662 8.00091 38.6128 7.72604L36.5164 4.31941ZM34.055 6.88383C33.4472 7.97776 33.1657 9.18085 33.1784 10.4461L37.1782 10.4061C37.1719 9.77748 37.307 9.26656 37.5516 8.8264L34.055 6.88383ZM33.1783 10.4261C33.1783 11.6834 33.4551 12.8785 34.0458 13.966L37.5607 12.0567C37.3181 11.6101 37.1783 11.0818 37.1783 10.4261H33.1783ZM34.0601 13.9919C34.6489 15.0385 35.4607 15.8925 36.4782 16.5268L38.5942 13.1323C38.1534 12.8575 37.8099 12.4993 37.5464 12.0308L34.0601 13.9919ZM36.504 16.5426C37.5843 17.1935 38.7907 17.4972 40.0646 17.4972V13.4972C39.4446 13.4972 38.9654 13.3557 38.5684 13.1165L36.504 16.5426ZM40.0646 17.4972C41.0302 17.4972 41.9636 17.3155 42.8407 16.9317L41.2374 13.2671C40.9024 13.4137 40.5195 13.4972 40.0646 13.4972V17.4972ZM42.8407 16.9317C43.681 16.5641 44.4264 16.0498 45.0591 15.3901L42.1724 12.6212C41.915 12.8896 41.6093 13.1044 41.2374 13.2671L42.8407 16.9317ZM45.0585 15.3907C45.6877 14.7354 46.1787 13.9805 46.5281 13.1394L42.8341 11.6049C42.6722 11.9949 42.4529 12.329 42.173 12.6206L45.0585 15.3907ZM46.5281 13.1394C46.8886 12.2716 47.0646 11.3566 47.0646 10.4119H43.0646C43.0646 10.8499 42.985 11.2416 42.8341 11.6049L46.5281 13.1394ZM47.0645 10.3913C47.0518 9.15603 46.755 7.98411 46.1595 6.91224L42.6629 8.85481C42.9197 9.31703 43.0585 9.83071 43.0647 10.4325L47.0645 10.3913ZM46.1595 6.91224C45.5673 5.84622 44.7408 4.98038 43.7041 4.33732L41.5957 7.73654C42.0551 8.02151 42.4029 8.38674 42.6629 8.85481L46.1595 6.91224ZM43.704 4.33732C42.6186 3.66406 41.4062 3.34091 40.1214 3.34091V7.34091C40.7117 7.34091 41.1849 7.48177 41.5957 7.73654L43.704 4.33732ZM89.7202 0.90909H91.7202V-1.09091H89.7202V0.90909ZM89.7202 30V32H91.7202V30H89.7202ZM84.4077 30L82.7625 31.1372L83.3588 32H84.4077V30ZM71.7514 11.6903L73.3966 10.5531L72.8003 9.69034H71.7514V11.6903ZM71.5384 11.6903V9.69034H69.5384V11.6903H71.5384ZM71.5384 30V32H73.5384V30H71.5384ZM65.3878 30H63.3878V32H65.3878V30ZM65.3878 0.90909V-1.09091H63.3878V0.90909H65.3878ZM70.7855 0.90909L72.4345 -0.222663L71.8386 -1.09091H70.7855V0.90909ZM83.3423 19.2045L81.6934 20.3363L82.2893 21.2045H83.3423V19.2045ZM83.598 19.2045V21.2045H85.598V19.2045H83.598ZM83.598 0.90909V-1.09091H81.598V0.90909H83.598ZM87.7202 0.90909V30H91.7202V0.90909H87.7202ZM89.7202 28H84.4077V32H89.7202V28ZM86.0529 28.8628L73.3966 10.5531L70.1062 12.8276L82.7625 31.1372L86.0529 28.8628ZM71.7514 9.69034H71.5384V13.6903H71.7514V9.69034ZM69.5384 11.6903V30H73.5384V11.6903H69.5384ZM71.5384 28H65.3878V32H71.5384V28ZM67.3878 30V0.90909H63.3878V30H67.3878ZM65.3878 2.90909H70.7855V-1.09091H65.3878V2.90909ZM69.1365 2.04084L81.6934 20.3363L84.9913 18.0728L72.4345 -0.222663L69.1365 2.04084ZM83.3423 21.2045H83.598V17.2045H83.3423V21.2045ZM85.598 19.2045V0.90909H81.598V19.2045H85.598ZM83.598 2.90909H89.7202V-1.09091H83.598V2.90909ZM94.8018 30H92.8018V32H94.8018V30ZM94.8018 0.90909V-1.09091H92.8018V0.90909H94.8018ZM114.404 0.90909H116.404V-1.09091H114.404V0.90909ZM114.404 5.98011V7.98011H116.404V5.98011H114.404ZM100.952 5.98011V3.98011H98.9524V5.98011H100.952ZM100.952 12.9119H98.9524V14.9119H100.952V12.9119ZM113.396 12.9119H115.396V10.9119H113.396V12.9119ZM113.396 17.983V19.983H115.396V17.983H113.396ZM100.952 17.983V15.983H98.9524V17.983H100.952ZM100.952 24.929H98.9524V26.929H100.952V24.929ZM114.461 24.929H116.461V22.929H114.461V24.929ZM114.461 30V32H116.461V30H114.461ZM96.8018 30V0.90909H92.8018V30H96.8018ZM94.8018 2.90909H114.404V-1.09091H94.8018V2.90909ZM112.404 0.90909V5.98011H116.404V0.90909H112.404ZM114.404 3.98011H100.952V7.98011H114.404V3.98011ZM98.9524 5.98011V12.9119H102.952V5.98011H98.9524ZM100.952 14.9119H113.396V10.9119H100.952V14.9119ZM111.396 12.9119V17.983H115.396V12.9119H111.396ZM113.396 15.983H100.952V19.983H113.396V15.983ZM98.9524 17.983V24.929H102.952V17.983H98.9524ZM100.952 26.929H114.461V22.929H100.952V26.929ZM112.461 24.929V30H116.461V24.929H112.461ZM114.461 28H94.8018V32H114.461V28ZM125.842 30L123.919 30.5502L124.334 32H125.842V30ZM117.518 0.90909V-1.09091H114.866L115.596 1.45928L117.518 0.90909ZM124.237 0.90909L126.183 0.445603L125.817 -1.09091H124.237V0.90909ZM129.053 21.1222L127.107 21.5856L127.473 23.1222H129.053V21.1222ZM129.294 21.1222V23.1222H130.836L131.228 21.6305L129.294 21.1222ZM134.607 0.90909V-1.09091H133.064L132.672 0.400706L134.607 0.90909ZM140.359 0.90909L142.294 0.402976L141.904 -1.09091H140.359V0.90909ZM145.658 21.1648L143.723 21.6709L144.114 23.1648H145.658V21.1648ZM145.913 21.1648V23.1648H147.494L147.859 21.6273L145.913 21.1648ZM150.729 0.90909V-1.09091H149.148L148.783 0.446525L150.729 0.90909ZM157.447 0.90909L159.37 1.45928L160.1 -1.09091H157.447V0.90909ZM149.124 30V32H150.632L151.046 30.5502L149.124 30ZM143.129 30L141.209 30.5593L141.629 32H143.129V30ZM137.589 10.9801L139.51 10.4208L139.09 8.98011H137.589V10.9801ZM137.362 10.9801V8.98011H135.861L135.442 10.4222L137.362 10.9801ZM131.837 30V32H133.338L133.757 30.558L131.837 30ZM127.765 29.4498L119.441 0.358904L115.596 1.45928L123.919 30.5502L127.765 29.4498ZM117.518 2.90909H124.237V-1.09091H117.518V2.90909ZM122.292 1.37258L127.107 21.5856L130.998 20.6587L126.183 0.445603L122.292 1.37258ZM129.053 23.1222H129.294V19.1222H129.053V23.1222ZM131.228 21.6305L136.541 1.41747L132.672 0.400706L127.36 20.6138L131.228 21.6305ZM134.607 2.90909H140.359V-1.09091H134.607V2.90909ZM138.424 1.4152L143.723 21.6709L147.593 20.6587L142.294 0.402976L138.424 1.4152ZM145.658 23.1648H145.913V19.1648H145.658V23.1648ZM147.859 21.6273L152.674 1.37165L148.783 0.446525L143.968 20.7022L147.859 21.6273ZM150.729 2.90909H157.447V-1.09091H150.729V2.90909ZM155.525 0.358904L147.201 29.4498L151.046 30.5502L159.37 1.45928L155.525 0.358904ZM149.124 28H143.129V32H149.124V28ZM145.049 29.4407L139.51 10.4208L135.669 11.5394L141.209 30.5593L145.049 29.4407ZM137.589 8.98011H137.362V12.9801H137.589V8.98011ZM135.442 10.4222L129.916 29.442L133.757 30.558L139.283 11.5381L135.442 10.4222ZM131.837 28H125.842V32H131.837V28ZM176.247 9.27557L174.257 9.47295L174.436 11.2756H176.247V9.27557ZM168.733 6.07955L169.471 7.93825L169.482 7.9339L169.493 7.92942L168.733 6.07955ZM167.142 7.23011L165.542 6.03011L165.535 6.04005L165.527 6.05008L167.142 7.23011ZM166.602 8.90625L168.601 8.97893L168.602 8.9426V8.90625H166.602ZM166.929 10.2699L165.221 11.3111L165.231 11.3261L165.24 11.341L166.929 10.2699ZM167.938 11.2784L166.828 12.9425L166.841 12.9511L166.854 12.9596L167.938 11.2784ZM169.415 12.0028L168.716 13.8768L168.73 13.882L168.744 13.887L169.415 12.0028ZM171.205 12.5142L171.67 10.569L171.656 10.5657L171.641 10.5625L171.205 12.5142ZM173.818 13.1392L173.353 15.0844L173.367 15.0877L173.381 15.0909L173.818 13.1392ZM177.312 14.2756L176.497 16.1018L176.497 16.1018L177.312 14.2756ZM180.068 16.0227L181.398 14.5289L181.398 14.5289L180.068 16.0227ZM181.872 18.4659L180.051 19.2935L180.055 19.3011L180.058 19.3087L181.872 18.4659ZM182.54 21.6903L184.54 21.701L184.54 21.6878L184.54 21.6747L182.54 21.6903ZM181.176 26.321L179.529 25.187L179.527 25.1895L181.176 26.321ZM177.312 29.3466L178.093 31.1881L178.098 31.1859L177.312 29.3466ZM165.111 29.3324L164.344 31.1794L164.347 31.1809L165.111 29.3324ZM161.048 26.1364L159.394 27.261L159.399 27.2673L159.403 27.2736L161.048 26.1364ZM159.528 20.8665V18.8665H157.483L157.529 20.9117L159.528 20.8665ZM165.48 20.8665L167.476 20.7309L167.349 18.8665H165.48V20.8665ZM166.318 23.3097L164.721 24.5134L164.731 24.5263L164.741 24.5391L166.318 23.3097ZM168.321 24.7727L167.582 26.6311L167.595 26.6362L167.607 26.641L168.321 24.7727ZM173.889 24.8011L173.162 22.938L173.154 22.941L173.889 24.8011ZM175.693 23.5369L177.263 24.7762L177.263 24.7762L175.693 23.5369ZM175.75 20.0284L174.227 21.3246L174.235 21.3339L174.243 21.3431L175.75 20.0284ZM174.074 18.892L173.286 20.7304L173.295 20.734L174.074 18.892ZM171.389 18.0398L170.902 19.9795L170.911 19.9819L170.92 19.9841L171.389 18.0398ZM168.222 17.2443L168.709 15.3045L168.702 15.3027L168.694 15.301L168.222 17.2443ZM162.412 14.446L161.08 15.9375L161.08 15.9375L162.412 14.446ZM160.295 9.31818L162.295 9.32699L162.295 9.31721L162.295 9.30743L160.295 9.31818ZM161.702 4.7017L160.084 3.52604L160.078 3.53371L161.702 4.7017ZM176.972 1.61932L176.138 3.43711L176.142 3.43896L176.972 1.61932ZM180.75 4.7017L179.099 5.83022L179.099 5.83022L180.75 4.7017ZM182.142 9.27557V11.2756H184.175L184.142 9.24279L182.142 9.27557ZM178.237 9.07819C178.073 7.4168 177.325 5.99257 175.97 4.99456L173.598 8.21567C173.966 8.48659 174.194 8.84267 174.257 9.47295L178.237 9.07819ZM175.97 4.99456C174.656 4.02684 173.021 3.65341 171.276 3.65341V7.65341C172.485 7.65341 173.189 7.91445 173.598 8.21567L175.97 4.99456ZM171.276 3.65341C170.095 3.65341 168.973 3.81878 167.973 4.22967L169.493 7.92942C169.876 7.77213 170.448 7.65341 171.276 7.65341V3.65341ZM167.995 4.22084C167.033 4.60301 166.175 5.18682 165.542 6.03011L168.742 8.43011C168.848 8.28855 169.051 8.10532 169.471 7.93825L167.995 4.22084ZM165.527 6.05008C164.911 6.89403 164.602 7.86827 164.602 8.90625H168.602C168.602 8.69423 168.654 8.55105 168.757 8.41014L165.527 6.05008ZM164.604 8.83357C164.573 9.68735 164.752 10.5411 165.221 11.3111L168.637 9.22867C168.633 9.22213 168.594 9.16682 168.601 8.97893L164.604 8.83357ZM165.24 11.341C165.652 11.9908 166.196 12.5212 166.828 12.9425L169.047 9.61431C168.827 9.46748 168.698 9.32547 168.618 9.1988L165.24 11.341ZM166.854 12.9596C167.42 13.3243 168.045 13.6268 168.716 13.8768L170.114 10.1289C169.667 9.96226 169.307 9.78176 169.021 9.59727L166.854 12.9596ZM168.744 13.887C169.386 14.1156 170.061 14.3078 170.768 14.4659L171.641 10.5625C171.079 10.4365 170.561 10.2878 170.085 10.1186L168.744 13.887ZM170.739 14.4594L173.353 15.0844L174.283 11.194L171.67 10.569L170.739 14.4594ZM173.381 15.0909C174.535 15.3493 175.572 15.6887 176.497 16.1018L178.128 12.4493C176.932 11.9155 175.639 11.4973 174.255 11.1875L173.381 15.0909ZM176.497 16.1018C177.392 16.5013 178.132 16.9768 178.738 17.5165L181.398 14.5289C180.451 13.6861 179.354 12.9968 178.128 12.4493L176.497 16.1018ZM178.738 17.5165C179.309 18.0242 179.742 18.6124 180.051 19.2935L183.693 17.6383C183.15 16.4445 182.381 15.4038 181.398 14.5289L178.738 17.5165ZM180.058 19.3087C180.355 19.946 180.532 20.7308 180.54 21.706L184.54 21.6747C184.528 20.2256 184.261 18.8608 183.686 17.6231L180.058 19.3087ZM180.54 21.6797C180.532 23.1095 180.174 24.2503 179.529 25.187L182.824 27.4551C183.978 25.7781 184.528 23.8318 184.54 21.701L180.54 21.6797ZM179.527 25.1895C178.885 26.1249 177.922 26.9116 176.527 27.5072L178.098 31.1859C180.074 30.3422 181.687 29.1118 182.825 27.4525L179.527 25.1895ZM176.532 27.5051C175.165 28.0844 173.423 28.4119 171.247 28.4119V32.4119C173.806 32.4119 176.108 32.0292 178.093 31.1881L176.532 27.5051ZM171.247 28.4119C169.098 28.4119 167.323 28.0823 165.874 27.4839L164.347 31.1809C166.383 32.0219 168.699 32.4119 171.247 32.4119V28.4119ZM165.878 27.4853C164.465 26.8986 163.43 26.0646 162.693 24.9991L159.403 27.2736C160.617 29.0301 162.291 30.3268 164.344 31.1794L165.878 27.4853ZM162.702 25.0117C161.996 23.9739 161.568 22.6133 161.528 20.8212L157.529 20.9117C157.583 23.3052 158.168 25.458 159.394 27.261L162.702 25.0117ZM159.528 22.8665H165.48V18.8665H159.528V22.8665ZM163.485 21.0021C163.572 22.2881 163.953 23.4941 164.721 24.5134L167.915 22.106C167.699 21.8184 167.521 21.3956 167.476 20.7309L163.485 21.0021ZM164.741 24.5391C165.482 25.4906 166.452 26.1816 167.582 26.6311L169.06 22.9143C168.524 22.701 168.158 22.4166 167.896 22.0802L164.741 24.5391ZM167.607 26.641C168.714 27.0639 169.914 27.2557 171.176 27.2557V23.2557C170.317 23.2557 169.613 23.1255 169.035 22.9044L167.607 26.641ZM171.176 27.2557C172.406 27.2557 173.57 27.0775 174.624 26.6612L173.154 22.941C172.674 23.1308 172.03 23.2557 171.176 23.2557V27.2557ZM174.616 26.6643C175.654 26.2593 176.574 25.6489 177.263 24.7762L174.123 22.2976C173.96 22.5045 173.677 22.7369 173.162 22.938L174.616 26.6643ZM177.263 24.7762C177.973 23.8763 178.332 22.8174 178.332 21.6761H174.332C174.332 21.9364 174.265 22.118 174.123 22.2976L177.263 24.7762ZM178.332 21.6761C178.332 20.5945 177.998 19.5626 177.257 18.7137L174.243 21.3431C174.279 21.3844 174.332 21.4509 174.332 21.6761H178.332ZM177.273 18.7322C176.631 17.9782 175.778 17.4413 174.853 17.0501L173.295 20.734C173.847 20.9678 174.111 21.1884 174.227 21.3246L177.273 18.7322ZM174.862 17.0538C173.999 16.6841 172.99 16.3685 171.858 16.0955L170.92 19.9841C171.909 20.2225 172.69 20.475 173.286 20.7303L174.862 17.0538ZM171.876 16.1L168.709 15.3045L167.734 19.1841L170.902 19.9795L171.876 16.1ZM168.694 15.301C166.461 14.7577 164.853 13.9449 163.744 12.9545L161.08 15.9375C162.812 17.485 165.077 18.5377 167.749 19.1877L168.694 15.301ZM163.744 12.9545C162.808 12.1184 162.288 10.9859 162.295 9.32699L158.295 9.30937C158.284 11.9497 159.175 14.2357 161.08 15.9375L163.744 12.9545ZM162.295 9.30743C162.288 7.93041 162.647 6.81277 163.325 5.8697L160.078 3.53371C158.863 5.22322 158.284 7.18323 158.295 9.32893L162.295 9.30743ZM163.32 5.87736C164.045 4.87913 165.062 4.0613 166.447 3.4478L164.826 -0.209161C162.877 0.654613 161.271 1.89171 160.084 3.52605L163.32 5.87736ZM166.447 3.4478C167.82 2.83926 169.431 2.51136 171.318 2.51136V-1.48864C168.963 -1.48864 166.786 -1.0779 164.826 -0.209161L166.447 3.4478ZM171.318 2.51136C173.251 2.51136 174.84 2.84185 176.138 3.43711L177.806 -0.198474C175.883 -1.08049 173.703 -1.48864 171.318 -1.48864V2.51136ZM176.142 3.43896C177.469 4.04441 178.428 4.84885 179.099 5.83022L182.401 3.57319C181.273 1.92198 179.713 0.671494 177.802 -0.200321L176.142 3.43896ZM179.099 5.83022C179.758 6.79507 180.12 7.9313 180.142 9.30835L184.142 9.24279C184.108 7.15393 183.541 5.24091 182.401 3.57319L179.099 5.83022ZM182.142 7.27557H176.247V11.2756H182.142V7.27557Z" fill="white" mask="url(#path-1-outside-1_1_634)"/>
</g>
<defs>
<filter id="filter0_d_1_634" x="0.0739746" y="0.497131" width="186.466" height="37.9148" filterUnits="userSpaceOnUse" color-interpolation-filters="sRGB">
<feFlood flood-opacity="0" result="BackgroundImageFix"/>
<feColorMatrix in="SourceAlpha" type="matrix" values="0 0 0 0 0 0 0 0 0 0 0 0 0 0 0 0 0 0 127 0" result="hardAlpha"/>
<feOffset dy="4"/>
<feGaussianBlur stdDeviation="2"/>
<feComposite in2="hardAlpha" operator="out"/>
<feColorMatrix type="matrix" values="0 0 0 0 0 0 0 0 0 0 0 0 0 0 0 0 0 0 0.25 0"/>
<feBlend mode="normal" in2="BackgroundImageFix" result="effect1_dropShadow_1_634"/>
<feBlend mode="normal" in="SourceGraphic" in2="effect1_dropShadow_1_634" result="shape"/>
</filter>
</defs>
</svg>
