<svg width="32" height="27" viewBox="0 0 32 27" fill="none" xmlns="http://www.w3.org/2000/svg">
<path d="M15.5757 6.75295L5.33375 15.5769V25.1006C5.33375 25.3472 5.4274 25.5836 5.59408 25.758C5.76077 25.9324 5.98685 26.0303 6.22258 26.0303L12.4477 26.0135C12.6826 26.0122 12.9075 25.9137 13.0733 25.7395C13.239 25.5653 13.332 25.3295 13.332 25.0837V19.522C13.332 19.2754 13.4257 19.0389 13.5924 18.8646C13.759 18.6902 13.9851 18.5923 14.2208 18.5923H17.7761C18.0119 18.5923 18.2379 18.6902 18.4046 18.8646C18.5713 19.0389 18.665 19.2754 18.665 19.522V25.0796C18.6646 25.202 18.6873 25.3232 18.7318 25.4363C18.7763 25.5495 18.8417 25.6523 18.9243 25.739C19.0069 25.8256 19.105 25.8944 19.213 25.9413C19.321 25.9882 19.4368 26.0123 19.5538 26.0123L25.7766 26.0303C26.0124 26.0303 26.2384 25.9324 26.4051 25.758C26.5718 25.5836 26.6654 25.3472 26.6654 25.1006V15.5705L16.4257 6.75295C16.3053 6.65145 16.1553 6.5961 16.0007 6.5961C15.8461 6.5961 15.6961 6.65145 15.5757 6.75295ZM31.7539 12.7505L27.1099 8.74612V0.697319C27.1099 0.512378 27.0396 0.335013 26.9146 0.20424C26.7896 0.0734674 26.62 0 26.4432 0H23.3324C23.1556 0 22.986 0.0734674 22.861 0.20424C22.736 0.335013 22.6658 0.512378 22.6658 0.697319V4.91668L17.6922 0.636303C17.215 0.225454 16.616 0.000821293 15.9979 0.000821293C15.3798 0.000821293 14.7809 0.225454 14.3036 0.636303L0.241925 12.7505C0.174423 12.8088 0.118576 12.8805 0.0775751 12.9615C0.0365738 13.0424 0.0112218 13.131 0.00296764 13.2222C-0.00528651 13.3134 0.00371897 13.4054 0.0294695 13.493C0.0552201 13.5806 0.097211 13.662 0.153043 13.7325L1.5696 15.5339C1.62528 15.6048 1.69377 15.6634 1.77114 15.7065C1.84851 15.7496 1.93325 15.7763 2.02051 15.7851C2.10776 15.7939 2.19582 15.7846 2.27963 15.7578C2.36345 15.7309 2.44139 15.687 2.50897 15.6287L15.5757 4.37045C15.6961 4.26894 15.8461 4.21359 16.0007 4.21359C16.1553 4.21359 16.3053 4.26894 16.4257 4.37045L29.493 15.6287C29.5605 15.6871 29.6383 15.731 29.722 15.7579C29.8057 15.7849 29.8936 15.7943 29.9808 15.7856C30.068 15.777 30.1527 15.7505 30.2301 15.7076C30.3075 15.6647 30.376 15.6063 30.4318 15.5357L31.8484 13.7343C31.9042 13.6633 31.946 13.5815 31.9714 13.4935C31.9969 13.4056 32.0054 13.3133 31.9967 13.2218C31.9879 13.1304 31.9619 13.0417 31.9203 12.9608C31.8786 12.8799 31.8221 12.8084 31.7539 12.7505Z" fill="white"/>
</svg>
